<svg width="23" height="23" viewBox="0 0 23 23" fill="none" xmlns="http://www.w3.org/2000/svg">
<path fill-rule="evenodd" clip-rule="evenodd" d="M12.9297 3.31481C12.4385 3.16471 11.9181 3.08423 11.3805 3.08423C8.68101 3.08423 6.41317 5.11404 6.11505 7.79707L5.87625 9.94628C5.75375 11.0488 5.39489 12.112 4.82414 13.0632L4.27595 13.9769C3.82062 14.7357 3.59296 15.1152 3.61359 15.4274C3.63368 15.7313 3.7912 16.0095 4.04148 16.1831C4.29855 16.3614 4.74106 16.3614 5.62606 16.3614H17.135C18.02 16.3614 18.4625 16.3614 18.7196 16.1831C18.9699 16.0095 19.1274 15.7313 19.1475 15.4274C19.1681 15.1152 18.9405 14.7357 18.4852 13.9769L18.4851 13.9768L17.937 13.0632C17.5197 12.3678 17.2157 11.6126 17.0345 10.8259C14.3468 10.8065 12.174 8.62164 12.174 5.92934C12.174 4.96796 12.4511 4.07129 12.9297 3.31481ZM15.4339 4.97037C15.2688 5.25174 15.174 5.57948 15.174 5.92934C15.174 6.83009 15.8019 7.58419 16.6439 7.77784C16.5211 6.70828 16.0852 5.74328 15.4339 4.97037Z" fill="white"/>
<path d="M8.53537 16.3614C8.53537 16.735 8.60896 17.105 8.75194 17.4502C8.89492 17.7954 9.10449 18.109 9.36868 18.3732C9.63288 18.6374 9.94652 18.847 10.2917 18.9899C10.6369 19.1329 11.0069 19.2065 11.3805 19.2065C11.7541 19.2065 12.1241 19.1329 12.4693 18.9899C12.8144 18.847 13.1281 18.6374 13.3923 18.3732C13.6565 18.109 13.866 17.7954 14.009 17.4502C14.152 17.105 14.2256 16.735 14.2256 16.3614L11.3805 16.3614H8.53537Z" fill="white"/>
<path d="M17.0706 8.32607C18.3942 8.32607 19.4673 7.25301 19.4673 5.92933C19.4673 4.60565 18.3942 3.53259 17.0706 3.53259C15.7469 3.53259 14.6738 4.60565 14.6738 5.92933C14.6738 7.25301 15.7469 8.32607 17.0706 8.32607Z" fill="#FFC30D" stroke="#FFC30D"/>
</svg>
