<svg width="31" height="30" viewBox="0 0 31 30" fill="none" xmlns="http://www.w3.org/2000/svg">
<path d="M12.1143 12.5004C12.1143 11.5109 10.7983 11.2487 10.4492 12.1745C9.60461 14.4139 8.98926 16.4172 8.98926 17.5003C8.98926 20.952 11.7875 23.7503 15.2393 23.7503C18.691 23.7503 21.4893 20.952 21.4893 17.5003C21.4893 16.3366 20.779 14.1108 19.8373 11.6712C18.6175 8.51099 18.0076 6.93086 17.2547 6.84576C17.0138 6.81852 16.7509 6.86748 16.536 6.97964C15.8643 7.33016 15.8643 9.05356 15.8643 12.5004C15.8643 13.5359 15.0248 14.3754 13.9893 14.3754C12.9537 14.3754 12.1143 13.5359 12.1143 12.5004Z" fill="#FFC30D"/>
</svg>
