<svg width="13" height="14" viewBox="0 0 13 14" fill="none" xmlns="http://www.w3.org/2000/svg">
<path fill-rule="evenodd" clip-rule="evenodd" d="M4.02853 1.69861H8.50118C10.25 1.69861 11.421 2.92588 11.421 4.75208V8.96679C11.421 10.7883 10.25 12.0161 8.50118 12.0161H4.02853C2.27971 12.0161 1.10352 10.7883 1.10352 8.96679V4.75208C1.10352 2.92588 2.27971 1.69861 4.02853 1.69861ZM8.10911 8.82286C8.23808 8.82286 8.36705 8.75579 8.43928 8.63198C8.55277 8.45091 8.49086 8.21361 8.30515 8.10063L6.46863 7.00697V4.62311C6.46863 4.41212 6.29839 4.2362 6.08172 4.2362C5.87021 4.2362 5.69481 4.41212 5.69481 4.62311V7.2288C5.69481 7.36293 5.76704 7.4919 5.88569 7.55896L7.90792 8.76611C7.96983 8.80738 8.04205 8.82286 8.10911 8.82286Z" fill="#FFC30D"/>
</svg>
