<svg width="59" height="59" viewBox="0 0 59 59" fill="none" xmlns="http://www.w3.org/2000/svg">
<path d="M59 29.5C59 45.7924 45.7924 59 29.5 59C13.2076 59 0 45.7924 0 29.5C0 13.2076 13.2076 0 29.5 0C45.7924 0 59 13.2076 59 29.5ZM3.54 29.5C3.54 43.8373 15.1627 55.46 29.5 55.46C43.8373 55.46 55.46 43.8373 55.46 29.5C55.46 15.1627 43.8373 3.54 29.5 3.54C15.1627 3.54 3.54 15.1627 3.54 29.5Z" fill="#FFCF5F"/>
<path d="M29.5 0C35.4925 7.14599e-08 41.3429 1.825 46.2726 5.23211C51.2023 8.63921 54.9774 13.4668 57.0956 19.0725C59.2138 24.6781 59.5746 30.796 58.1299 36.6117C56.6853 42.4275 53.5037 47.6654 49.0087 51.6283C44.5137 55.5912 38.9183 58.0912 32.9674 58.7955C27.0164 59.4999 20.992 58.3752 15.6961 55.5711C10.4001 52.767 6.08369 48.4166 3.3213 43.0987C0.558913 37.7809 -0.518444 31.7479 0.232617 25.8027L6.08609 26.5421C5.48524 31.2983 6.34713 36.1247 8.55704 40.379C10.767 44.6333 14.2201 48.1136 18.4569 50.3569C22.6936 52.6001 27.5131 53.4999 32.2739 52.9364C37.0347 52.3729 41.5109 50.373 45.107 47.2026C48.703 44.0323 51.2482 39.842 52.404 35.1894C53.5597 30.5368 53.271 25.6425 51.5765 21.158C49.8819 16.6735 46.8618 12.8114 42.9181 10.0857C38.9743 7.36 34.294 5.9 29.5 5.9L29.5 0Z" fill="url(#paint0_linear_1_887)"/>
<path d="M29.5 0C35.4925 7.14599e-08 41.3429 1.825 46.2726 5.23211C51.2023 8.63921 54.9774 13.4668 57.0956 19.0725C59.2138 24.6781 59.5746 30.796 58.1299 36.6117C56.6853 42.4275 53.5037 47.6654 49.0087 51.6283C44.5137 55.5912 38.9183 58.0912 32.9674 58.7955C27.0164 59.4999 20.992 58.3752 15.6961 55.5711C10.4001 52.767 6.08369 48.4166 3.3213 43.0987C0.558913 37.7809 -0.518444 31.7479 0.232617 25.8027L6.08609 26.5421C5.48524 31.2983 6.34713 36.1247 8.55704 40.379C10.767 44.6333 14.2201 48.1136 18.4569 50.3569C22.6936 52.6001 27.5131 53.4999 32.2739 52.9364C37.0347 52.3729 41.5109 50.373 45.107 47.2026C48.703 44.0323 51.2482 39.842 52.404 35.1894C53.5597 30.5368 53.271 25.6425 51.5765 21.158C49.8819 16.6735 46.8618 12.8114 42.9181 10.0857C38.9743 7.36 34.294 5.9 29.5 5.9L29.5 0Z" fill="black" fill-opacity="0.2"/>
<path d="M25.7047 23.3264H21.7087V21.5264H27.6487V23.2544L24.5527 34.1264H22.5367L25.7047 23.3264ZM29.0417 32.2184H30.9497V34.1264H29.0417V32.2184ZM36.3043 23.3264H32.3083V21.5264H38.2483V23.2544L35.1523 34.1264H33.1363L36.3043 23.3264Z" fill="white"/>
<defs>
<linearGradient id="paint0_linear_1_887" x1="59" y1="0" x2="0" y2="0" gradientUnits="userSpaceOnUse">
<stop stop-color="#8743FF"/>
<stop offset="1" stop-color="#4136F1"/>
</linearGradient>
</defs>
</svg>
