<svg width="60" height="59" viewBox="0 0 60 59" fill="none" xmlns="http://www.w3.org/2000/svg">
<path d="M59.5601 29.5C59.5601 45.7924 46.3525 59 30.0601 59C13.7677 59 0.560059 45.7924 0.560059 29.5C0.560059 13.2076 13.7677 0 30.0601 0C46.3525 0 59.5601 13.2076 59.5601 29.5ZM4.10006 29.5C4.10006 43.8373 15.7227 55.46 30.0601 55.46C44.3974 55.46 56.0201 43.8373 56.0201 29.5C56.0201 15.1627 44.3974 3.54 30.0601 3.54C15.7227 3.54 4.10006 15.1627 4.10006 29.5Z" fill="#FFCF5F"/>
<path d="M30.0601 0C36.4483 7.61788e-08 42.6639 2.07368 47.7725 5.9093C52.881 9.74492 56.6065 15.1352 58.3887 21.2698C60.171 27.4043 59.9137 33.9517 57.6557 39.9275C55.3976 45.9033 51.2607 50.9847 45.8669 54.4077C40.4732 57.8307 34.114 59.4103 27.7455 58.9091C21.377 58.4078 15.3432 55.8529 10.5514 51.6283C5.75948 47.4037 2.46843 41.7377 1.17298 35.4822C-0.122465 29.2267 0.647688 22.7197 3.36766 16.9395L8.70614 19.4516C6.53016 24.0758 5.91404 29.2814 6.9504 34.2858C7.98676 39.2902 10.6196 43.8229 14.4531 47.2026C18.2866 50.5823 23.1136 52.6263 28.2084 53.0272C33.3032 53.4282 38.3906 52.1645 42.7056 49.4261C47.0206 46.6878 50.3301 42.6227 52.1365 37.842C53.943 33.0613 54.1488 27.8235 52.723 22.9158C51.2972 18.0082 48.3168 13.6959 44.23 10.6274C40.1431 7.55895 35.1706 5.9 30.0601 5.9L30.0601 0Z" fill="url(#paint0_linear_1_890)"/>
<path d="M30.0601 0C36.4483 7.61788e-08 42.6639 2.07368 47.7725 5.9093C52.881 9.74492 56.6065 15.1352 58.3887 21.2698C60.171 27.4043 59.9137 33.9517 57.6557 39.9275C55.3976 45.9033 51.2607 50.9847 45.8669 54.4077C40.4732 57.8307 34.114 59.4103 27.7455 58.9091C21.377 58.4078 15.3432 55.8529 10.5514 51.6283C5.75948 47.4037 2.46843 41.7377 1.17298 35.4822C-0.122465 29.2267 0.647688 22.7197 3.36766 16.9395L8.70614 19.4516C6.53016 24.0758 5.91404 29.2814 6.9504 34.2858C7.98676 39.2902 10.6196 43.8229 14.4531 47.2026C18.2866 50.5823 23.1136 52.6263 28.2084 53.0272C33.3032 53.4282 38.3906 52.1645 42.7056 49.4261C47.0206 46.6878 50.3301 42.6227 52.1365 37.842C53.943 33.0613 54.1488 27.8235 52.723 22.9158C51.2972 18.0082 48.3168 13.6959 44.23 10.6274C40.1431 7.55895 35.1706 5.9 30.0601 5.9L30.0601 0Z" fill="black" fill-opacity="0.2"/>
<defs>
<linearGradient id="paint0_linear_1_890" x1="59.5601" y1="0" x2="0.560059" y2="0" gradientUnits="userSpaceOnUse">
<stop stop-color="#8743FF"/>
<stop offset="1" stop-color="#4136F1"/>
</linearGradient>
</defs>
</svg>
