<svg width="25" height="25" viewBox="0 0 25 25" fill="none" xmlns="http://www.w3.org/2000/svg">
<g opacity="0.4">
<path d="M4.6362 14.4877L11.8785 21.2911C12.1418 21.5385 12.2735 21.6622 12.4308 21.6842C12.4768 21.6906 12.5234 21.6906 12.5694 21.6842C12.7267 21.6622 12.8583 21.5385 13.1217 21.2911L20.364 14.4877C22.4016 12.5736 22.6491 9.42356 20.9353 7.21467L20.6131 6.79934C18.5629 4.15688 14.4476 4.60003 13.007 7.61841C12.8035 8.04477 12.1966 8.04477 11.9931 7.61841C10.5526 4.60003 6.43729 4.15688 4.3871 6.79934L4.06486 7.21468C2.35107 9.42356 2.59852 12.5736 4.6362 14.4877Z" fill="white" stroke="white" stroke-width="2"/>
</g>
</svg>
