<svg width="25" height="25" viewBox="0 0 25 25" fill="none" xmlns="http://www.w3.org/2000/svg">
<g opacity="0.4">
<path d="M3.125 11.5333C3.125 10.4132 3.125 9.85316 3.34299 9.42533C3.53473 9.04901 3.84069 8.74305 4.21702 8.5513C4.64484 8.33331 5.20489 8.33331 6.325 8.33331H7.8762C8.42713 8.33331 8.70259 8.33331 8.95785 8.40199C9.18403 8.46284 9.39775 8.56294 9.58929 8.69774C9.80547 8.84987 9.98181 9.06149 10.3345 9.48472L11.9792 11.4583H14.5083C15.6284 11.4583 16.1885 11.4583 16.6163 11.6763C16.9926 11.868 17.2986 12.174 17.4903 12.5503C17.7083 12.9782 17.7083 13.5382 17.7083 14.6583V17.6333C17.7083 18.7534 17.7083 19.3135 17.4903 19.7413C17.2986 20.1176 16.9926 20.4236 16.6163 20.6153C16.1885 20.8333 15.6284 20.8333 14.5083 20.8333H9.525C7.28479 20.8333 6.16468 20.8333 5.30904 20.3973C4.55639 20.0138 3.94447 19.4019 3.56097 18.6493C3.125 17.7936 3.125 16.6735 3.125 14.4333V11.5333Z" fill="white"/>
<path d="M7.29175 7.36669C7.29175 6.24658 7.29175 5.68653 7.50974 5.25871C7.70148 4.88238 8.00744 4.57642 8.38377 4.38467C8.81159 4.16669 9.37164 4.16669 10.4917 4.16669H12.0429C12.5939 4.16669 12.8693 4.16669 13.1246 4.23536C13.3508 4.29621 13.5645 4.39632 13.756 4.53111C13.9722 4.68325 14.1486 4.89486 14.5013 5.3181L16.1459 7.29169H18.6751C19.7952 7.29169 20.3552 7.29169 20.7831 7.50967C21.1594 7.70142 21.4653 8.00738 21.6571 8.38371C21.8751 8.81153 21.8751 9.37158 21.8751 10.4917V13.4667C21.8751 14.5868 21.8751 15.1468 21.6571 15.5747C21.4653 15.951 21.1594 16.257 20.7831 16.4487C20.3552 16.6667 19.7952 16.6667 18.6751 16.6667H10.4917C9.37164 16.6667 8.81159 16.6667 8.38377 16.4487C8.00744 16.257 7.70148 15.951 7.50974 15.5747C7.29175 15.1468 7.29175 14.5868 7.29175 13.4667V7.36669Z" fill="white"/>
<path d="M6.25 7.29169V15.7084C6.25 16.8129 7.14543 17.7084 8.25 17.7084H20.8333" stroke="#1E1E1E" stroke-width="2"/>
</g>
</svg>
