<svg width="25" height="25" viewBox="0 0 25 25" fill="none" xmlns="http://www.w3.org/2000/svg">
<g opacity="0.4">
<path fill-rule="evenodd" clip-rule="evenodd" d="M8.5873 2.80191L12.8602 2.13047C16.0807 1.62437 17.691 1.37133 18.7413 2.26945C19.7916 3.16757 19.7916 4.79762 19.7916 8.05773V11.4996H13.5389L16.4058 7.91594L14.8441 6.66655L10.6774 11.8749L10.1776 12.4996L10.6774 13.1243L14.8441 18.3326L16.4058 17.0832L13.5389 13.4996H19.7916V16.9414C19.7916 20.2015 19.7916 21.8316 18.7413 22.7297C17.691 23.6278 16.0807 23.3748 12.8602 22.8687L8.5873 22.1972C6.97457 21.9438 6.1682 21.8171 5.68823 21.2558C5.20825 20.6945 5.20825 19.8782 5.20825 18.2457V6.75343C5.20825 5.1209 5.20825 4.30464 5.68823 3.74335C6.1682 3.18206 6.97457 3.05534 8.5873 2.80191Z" fill="white"/>
</g>
</svg>
