<svg width="25" height="25" viewBox="0 0 25 25" fill="none" xmlns="http://www.w3.org/2000/svg">
<g opacity="0.4">
<path fill-rule="evenodd" clip-rule="evenodd" d="M2.37128 5.88402C2.08325 6.49301 2.08325 7.28007 2.08325 8.85419V9.63544C2.08325 10.0669 2.43303 10.4167 2.8645 10.4167H3.12492C4.27551 10.4167 5.20825 11.3494 5.20825 12.5C5.20825 13.6506 4.27551 14.5834 3.12492 14.5834H2.8645C2.43303 14.5834 2.08325 14.9331 2.08325 15.3646V16.1459C2.08325 17.72 2.08325 18.507 2.37128 19.116C2.66804 19.7434 3.17316 20.2486 3.80059 20.5453C4.40958 20.8334 5.19664 20.8334 6.77076 20.8334H18.2291C19.8032 20.8334 20.5903 20.8334 21.1993 20.5453C21.8267 20.2486 22.3318 19.7434 22.6286 19.116C22.9166 18.507 22.9166 17.72 22.9166 16.1459V15.3646C22.9166 14.9331 22.5668 14.5834 22.1353 14.5834H21.8749C20.7243 14.5834 19.7916 13.6506 19.7916 12.5C19.7916 11.3494 20.7243 10.4167 21.8749 10.4167H22.1353C22.5668 10.4167 22.9166 10.0669 22.9166 9.63544V8.85419C22.9166 7.28007 22.9166 6.49301 22.6286 5.88402C22.3318 5.25659 21.8267 4.75147 21.1993 4.45472C20.5903 4.16669 19.8032 4.16669 18.2291 4.16669H6.77075C5.19664 4.16669 4.40958 4.16669 3.80059 4.45472C3.17316 4.75147 2.66804 5.25659 2.37128 5.88402ZM12.4432 10.4229C12.3009 10.4543 12.2133 10.6808 12.0382 11.1339C11.9386 11.3916 11.8888 11.5204 11.7956 11.6081C11.7695 11.6326 11.7411 11.6545 11.7109 11.6734C11.6032 11.7408 11.4688 11.7533 11.1999 11.7783C10.7447 11.8206 10.5171 11.8417 10.4476 11.9764C10.4332 12.0043 10.4235 12.0345 10.4187 12.0657C10.3956 12.2166 10.563 12.3746 10.8976 12.6905L10.9905 12.7782C11.1469 12.9259 11.2252 12.9998 11.2704 13.092C11.2975 13.1473 11.3157 13.2068 11.3243 13.2682C11.3385 13.3706 11.3156 13.4777 11.2698 13.692L11.2534 13.7686C11.1712 14.1528 11.1302 14.345 11.1814 14.4394C11.2275 14.5242 11.3123 14.5786 11.4061 14.5832C11.5104 14.5884 11.6574 14.464 11.9515 14.2154L11.9515 14.2154C12.1452 14.0516 12.242 13.9697 12.3496 13.9377C12.4478 13.9084 12.552 13.9084 12.6503 13.9377C12.7578 13.9697 12.8547 14.0516 13.0484 14.2154L13.0484 14.2154C13.3424 14.464 13.4894 14.5884 13.5938 14.5832C13.6875 14.5786 13.7723 14.5242 13.8184 14.4394C13.8697 14.345 13.8286 14.1528 13.7464 13.7686L13.7301 13.692C13.6843 13.4777 13.6614 13.3706 13.6756 13.2682C13.6841 13.2068 13.7023 13.1473 13.7294 13.092C13.7747 12.9998 13.8529 12.926 14.0093 12.7783L14.0093 12.7782L14.1023 12.6905C14.4369 12.3746 14.6042 12.2166 14.5812 12.0657C14.5764 12.0345 14.5666 12.0043 14.5522 11.9764C14.4827 11.8417 14.2551 11.8206 13.7999 11.7783C13.5311 11.7533 13.3966 11.7408 13.2889 11.6734C13.2587 11.6545 13.2303 11.6326 13.2042 11.6081C13.111 11.5204 13.0612 11.3916 12.9616 11.1339C12.7865 10.6808 12.6989 10.4543 12.5567 10.4229C12.5192 10.4146 12.4806 10.4146 12.4432 10.4229Z" fill="white"/>
</g>
</svg>
